<svg xmlns="http://www.w3.org/2000/svg" width="100" height="100" viewBox="0 0 100 100">
    <g fill="none" fill-rule="evenodd">
        <circle cx="50" cy="50" r="50" fill="#87064B"/>
        <g fill="#FFF" fill-rule="nonzero">
            <path d="M60.143 44.286h-20a1.429 1.429 0 1 0 0 2.857h20a1.429 1.429 0 1 0 0-2.857zM60.143 50h-20a1.429 1.429 0 1 0 0 2.857h20a1.429 1.429 0 0 0 0-2.857zM60.143 55.714h-20a1.429 1.429 0 1 0 0 2.857h20a1.429 1.429 0 1 0 0-2.857z"/>
            <path d="M35.857 70H64.43a2.857 2.857 0 0 0 2.857-2.857V38.57L58.714 30H35.857A2.857 2.857 0 0 0 33 32.857v34.286A2.857 2.857 0 0 0 35.857 70zm27.389-31.429h-4.532V34.04l4.532 4.531zm-27.389-5.714h20v5.714a2.857 2.857 0 0 0 2.857 2.858h5.715v25.714H35.857V32.857z"/>
        </g>
    </g>
</svg>
