<svg xmlns="http://www.w3.org/2000/svg" width="100" height="100" viewBox="0 0 100 100">
    <g fill="none" fill-rule="evenodd">
        <circle cx="50" cy="50" r="50" fill="#87064B"/>
        <g fill="#FFF" fill-rule="nonzero">
            <path d="M68.073 52a9.124 9.124 0 0 0-1.818-.182 1.818 1.818 0 0 0-1.819 1.818v14.546c0 1.004.814 1.818 1.819 1.818a9.09 9.09 0 0 0 1.818-18zm0 14.05V55.768a5.455 5.455 0 0 1 0 10.288v-.004zM33.527 70a1.818 1.818 0 0 0 1.818-1.818V53.636a1.818 1.818 0 0 0-1.818-1.818 9.09 9.09 0 0 0 0 18.182zM31.71 55.767v10.288a5.455 5.455 0 0 1 0-10.288zM33.527 50a1.818 1.818 0 0 0 1.818-1.818c0-8.033 6.513-14.546 14.546-14.546s14.545 6.513 14.545 14.546a1.818 1.818 0 0 0 3.637 0C68.073 38.14 59.933 30 49.89 30c-10.042 0-18.182 8.14-18.182 18.182A1.818 1.818 0 0 0 33.527 50z"/>
        </g>
    </g>
</svg>
