<svg xmlns="http://www.w3.org/2000/svg" width="100" height="100" viewBox="0 0 100 100">
    <g fill="none" fill-rule="evenodd">
        <circle cx="50" cy="50" r="50" fill="#87064B"/>
        <g fill="#FFF" fill-rule="nonzero">
            <path d="M38.47 69.529h28.235a2.823 2.823 0 0 0 2.824-2.824V35.647c0-.78-.632-1.412-1.412-1.412h-4.235v-1.412A2.823 2.823 0 0 0 61.058 30H32.823A2.823 2.823 0 0 0 30 32.823v28.235a8.47 8.47 0 0 0 8.47 8.471zm-5.647-36.706h28.235v28.235a1.412 1.412 0 1 0 2.824 0v-24h2.823v26.824a2.823 2.823 0 0 1-2.823 2.823H38.47a5.647 5.647 0 0 1-5.647-5.647V32.823z"/>
            <path d="M38.47 52.588h16.941a1.412 1.412 0 0 0 0-2.824h-16.94a1.412 1.412 0 1 0 0 2.824zM38.47 46.941h16.941a1.412 1.412 0 1 0 0-2.824h-16.94a1.412 1.412 0 1 0 0 2.824zM38.47 41.294h16.941a1.412 1.412 0 1 0 0-2.824h-16.94a1.412 1.412 0 0 0 0 2.824zM38.47 58.235h11.294a1.412 1.412 0 1 0 0-2.824H38.47a1.412 1.412 0 1 0 0 2.824z"/>
        </g>
    </g>
</svg>
